<?xml version="1.0" encoding="UTF-8" standalone="no"?>
<!-- Created with Inkscape (http://www.inkscape.org/) -->

<svg
   xmlns:dc="http://purl.org/dc/elements/1.1/"
   xmlns:cc="http://creativecommons.org/ns#"
   xmlns:rdf="http://www.w3.org/1999/02/22-rdf-syntax-ns#"
   xmlns:svg="http://www.w3.org/2000/svg"
   xmlns="http://www.w3.org/2000/svg"
   xmlns:sodipodi="http://sodipodi.sourceforge.net/DTD/sodipodi-0.dtd"
   xmlns:inkscape="http://www.inkscape.org/namespaces/inkscape"
   width="210mm"
   height="297mm"
   viewBox="0 0 744.09448819 1052.3622047"
   id="svg4827"
   version="1.1"
   inkscape:version="0.91 r13725"
   sodipodi:docname="Do-nut.svg">
  <defs
     id="defs4829" />
  <sodipodi:namedview
     id="base"
     pagecolor="#ffffff"
     bordercolor="#666666"
     borderopacity="1.0"
     inkscape:pageopacity="0.0"
     inkscape:pageshadow="2"
     inkscape:zoom="1.4"
     inkscape:cx="-824.41775"
     inkscape:cy="370.58875"
     inkscape:document-units="px"
     inkscape:current-layer="layer1"
     showgrid="false"
     inkscape:window-width="1920"
     inkscape:window-height="1018"
     inkscape:window-x="-8"
     inkscape:window-y="-8"
     inkscape:window-maximized="1" />
  <metadata
     id="metadata4832">
    <rdf:RDF>
      <cc:Work
         rdf:about="">
        <dc:format>image/svg+xml</dc:format>
        <dc:type
           rdf:resource="http://purl.org/dc/dcmitype/StillImage" />
        <dc:title />
      </cc:Work>
    </rdf:RDF>
  </metadata>
  <g
     inkscape:label="Layer 1"
     inkscape:groupmode="layer"
     id="layer1">
    <path
       style="color:#000000;font-style:normal;font-variant:normal;font-weight:normal;font-stretch:normal;font-size:medium;line-height:normal;font-family:sans-serif;text-indent:0;text-align:start;text-decoration:none;text-decoration-line:none;text-decoration-style:solid;text-decoration-color:#000000;letter-spacing:normal;word-spacing:normal;text-transform:none;direction:ltr;block-progression:tb;writing-mode:lr-tb;baseline-shift:baseline;text-anchor:start;white-space:normal;clip-rule:nonzero;display:inline;overflow:visible;visibility:visible;opacity:1;isolation:auto;mix-blend-mode:normal;color-interpolation:sRGB;color-interpolation-filters:linearRGB;solid-color:#000000;solid-opacity:1;fill:#54003e;fill-opacity:1;fill-rule:nonzero;stroke:none;stroke-width:25;stroke-linecap:round;stroke-linejoin:round;stroke-miterlimit:4;stroke-dasharray:none;stroke-dashoffset:0;stroke-opacity:1;color-rendering:auto;image-rendering:auto;shape-rendering:auto;text-rendering:auto;enable-background:accumulate"
       d="M -748.33984 447.6543 C -749.76201 447.6437 -751.19045 447.64355 -752.62305 447.65625 A 12.50125 12.50125 0 0 0 -752.63281 447.65625 C -840.1144 448.48894 -925.38057 494.04291 -973.68164 567.31445 C -1003.249 611.24303 -1019.1832 663.76338 -1019.668 716.5332 A 12.50125 12.50125 0 0 0 -1019.668 716.6875 C -1019.61 734.64353 -1015.2238 758.79172 -1009.1152 777.2168 C -1006.0609 786.42934 -1003.7466 793.83164 -996.81055 800.36328 C -995.07652 801.99619 -992.82424 803.6891 -989.5625 804.67773 C -986.30077 805.66637 -981.97325 805.49432 -978.64844 804.0332 C -971.99883 801.11097 -969.76919 796.23739 -967.87305 791.61133 C -954.66635 759.39056 -947.20799 729.99421 -940.0332 709.75586 C -936.4458 699.63668 -932.83056 691.89305 -929.64062 687.62305 C -926.4507 683.35304 -925.02612 682.66986 -922.14844 682.50781 C -919.82194 682.3768 -916.85601 683.82455 -912.10938 690.99023 C -907.36271 698.15592 -902.64225 709.584 -898.64453 721.81445 C -894.64681 734.04491 -891.23639 747.0878 -888.10547 758.22852 C -884.97455 769.36923 -883.60597 777.47737 -877.68164 785.52734 C -871.74429 793.59503 -861.46838 799.15059 -852.01172 797.00977 C -842.55506 794.86894 -836.9743 788.27276 -832.61523 781.33594 C -823.99209 767.61347 -819.31975 749.05825 -819.71094 731.17383 C -819.41739 720.77221 -815.57736 705.49374 -809.25586 692.04297 C -802.91663 678.55444 -793.88157 666.95949 -786.13086 662.17773 A 12.50125 12.50125 0 0 0 -785.89258 662.02539 C -775.12602 655.04102 -762.14446 651.17969 -749.26367 651.07031 A 12.50125 12.50125 0 0 0 -749.01953 651.06445 C -714.88752 650.103 -682.07495 682.62682 -682.10938 716.63477 L -682.10742 716.4707 C -682.2531 726.72258 -680.97847 740.27746 -675.91406 752.98633 C -673.38185 759.34076 -669.85061 765.59408 -664.29883 770.67578 C -658.74705 775.75749 -650.79002 779.30469 -642.19922 779.30469 C -634.20145 779.30469 -627.42158 774.26875 -623.59961 769.15234 C -619.77765 764.03593 -617.46589 758.36417 -615.36719 752.12109 C -611.16979 739.63494 -608.23091 724.61472 -604.7207 709.98438 C -601.21048 695.35402 -597.05388 681.19517 -592.02148 672.00391 C -586.98907 662.81264 -583.31127 659.83203 -577.34961 659.83203 C -573.98408 659.83203 -573.43083 660.31215 -572.03125 661.83008 C -570.63168 663.34801 -568.78572 666.83589 -567.46484 672.2168 C -564.82307 682.97861 -564.39415 700.1067 -563.93555 717.75 C -563.47695 735.3933 -563.04371 753.60748 -557.93555 769.45117 C -555.38147 777.37302 -551.49851 784.97351 -544.95312 790.81836 C -538.40774 796.66321 -529.25591 800.01953 -519.46484 800.01953 C -510.78259 800.01953 -502.63769 795.85045 -497.2168 790.08594 C -491.79591 784.32143 -488.38789 777.27082 -485.82617 769.5625 C -480.70274 754.14585 -479.01257 735.52313 -479.01953 716.64453 A 12.50125 12.50125 0 0 0 -479.01953 716.55469 C -479.29266 679.72414 -487.01125 642.97581 -501.75977 609.21289 A 35.446354 44.854962 38.53419 0 1 -504.03125 612.30859 A 35.446354 44.854962 38.53419 0 1 -559.70312 625.31445 A 35.446354 44.854962 38.53419 0 1 -569.71875 588.68945 A 60.44536 76.489518 38.53419 0 1 -648.58398 594.96875 A 60.44536 76.489518 38.53419 0 1 -659.5918 515.6582 A 35.446354 44.854962 38.53419 0 1 -698.63281 514.66992 A 35.446354 44.854962 38.53419 0 1 -698.41602 457.5 A 35.446354 44.854962 38.53419 0 1 -694.625 453.26562 C -702.51476 451.6531 -710.48559 450.3847 -718.52148 449.51953 C -728.41085 448.35734 -738.3674 447.72831 -748.33789 447.6543 L -748.33984 447.6543 z "
       id="path4151" />
    <path
       style="opacity:1;fill:#ff9b00;fill-opacity:0.31952661"
       d="M -748.57031 468.07617 A 250 250 0 0 0 -998.57031 718.07617 A 250 250 0 0 0 -748.57031 968.07617 A 250 250 0 0 0 -498.57031 718.07617 A 250 250 0 0 0 -517.64062 622.54492 A 35.446354 42.666913 38.53419 0 1 -556.01562 620.68359 A 35.446354 42.666913 38.53419 0 1 -566.71289 584.91406 A 60.44536 72.758318 38.53419 0 1 -643.93555 589.13281 A 60.44536 72.758318 38.53419 0 1 -656.62109 511.92578 A 35.446354 42.666913 38.53419 0 1 -694.94531 510.03906 A 35.446354 42.666913 38.53419 0 1 -705.04102 471.94727 A 250 250 0 0 0 -748.57031 468.07617 z M -748.57031 630.57617 A 87.5 87.5 0 0 1 -661.07031 718.07617 A 87.5 87.5 0 0 1 -748.57031 805.57617 A 87.5 87.5 0 0 1 -836.07031 718.07617 A 87.5 87.5 0 0 1 -748.57031 630.57617 z "
       id="path5379" />
    <path
       style="opacity:0.46600001;fill:#ffffff;fill-opacity:1"
       d="M -577.34961 659.83203 C -583.31127 659.83203 -586.98907 662.81264 -592.02148 672.00391 C -597.0192 681.13182 -601.1516 695.16073 -604.64648 709.68359 C -602.2251 751.598 -619.78713 793.95306 -650.62109 822.4375 C -679.62713 850.14663 -720.48995 865.59277 -760.64648 861.45117 C -806.14501 857.6644 -848.53664 829.9728 -872.23047 791.23242 C -874.2803 789.56081 -876.13149 787.63369 -877.68164 785.52734 C -883.60597 777.47737 -884.97455 769.36923 -888.10547 758.22852 C -891.23639 747.0878 -894.64681 734.04491 -898.64453 721.81445 C -902.64225 709.584 -907.36271 698.15592 -912.10938 690.99023 C -916.85602 683.82455 -919.82194 682.3768 -922.14844 682.50781 C -925.02612 682.66986 -926.4507 683.35304 -929.64062 687.62305 C -932.83055 691.89305 -936.4458 699.63668 -940.0332 709.75586 C -940.90445 712.21342 -941.78053 714.81104 -942.66992 717.52734 C -942.22971 786.50298 -904.02081 855.5362 -842.31641 888.13672 C -778.54882 922.79429 -694.63974 919.88475 -635.86719 876.16211 C -598.02023 849.18141 -570.89381 807.87256 -559.75586 762.90039 C -563.15479 748.69061 -563.53894 733.00838 -563.93555 717.75 C -564.39415 700.1067 -564.82307 682.97861 -567.46484 672.2168 C -568.78572 666.83589 -570.63168 663.34801 -572.03125 661.83008 C -573.43083 660.31215 -573.98408 659.83203 -577.34961 659.83203 z "
       id="path4154" />
    <path
       style="opacity:0.46600001;fill:#ffffff;fill-opacity:1"
       d="M -750.62695 523.98633 C -839.57989 523.78417 -923.75211 593.20747 -939.24805 680.92969 C -939.96745 684.55561 -940.56764 688.20156 -941.05859 691.85938 C -938.73996 687.26085 -936.07809 682.86388 -932.86133 678.83789 C -925.8635 672.19678 -913.52928 673.80738 -908.80859 682.38086 C -901.01641 692.09135 -896.2475 703.44148 -892.38867 715.17383 C -890.89521 653.60228 -846.48811 593.91012 -785.70898 579.49805 C -773.14932 576.17596 -760.17212 574.44727 -747.18164 574.3418 C -681.2408 573.46054 -621.2078 625.67316 -607.43359 689.19336 C -603.42498 675.84581 -597.94488 661.71967 -586.17188 653.5625 C -578.50271 649.5189 -567.98425 652.4117 -563.51562 659.56641 C -571.51696 634.59491 -584.73984 611.30263 -601.8457 591.38672 A 60.44536 66.41528 38.53419 0 1 -636.03125 579.20898 A 60.44536 66.41528 38.53419 0 1 -655.73828 547.54102 C -666.18149 541.849 -677.18077 537.15788 -688.62891 533.65625 C -708.68116 527.10367 -729.58264 523.80615 -750.62695 523.98633 z M -557.89844 681.32812 C -555.19589 699.98721 -556.60198 719.16143 -555.28516 737.98047 C -553.18425 719.13968 -553.93377 700.01183 -557.89844 681.32812 z "
       id="path4212" />
    <rect
       style="opacity:0.46600001;fill:#00ff00;fill-opacity:1;stroke:#000000;stroke-width:0;stroke-linecap:round;stroke-linejoin:round;stroke-miterlimit:4;stroke-dasharray:none;stroke-opacity:1"
       id="rect4305"
       width="35.355343"
       height="4.0406189"
       x="-784.88849"
       y="542.74023"
       ry="2.0203094" />
    <rect
       inkscape:transform-center-y="0.61139968"
       transform="matrix(0.99552805,0.09446638,-0.09446638,0.99552805,0,0)"
       style="opacity:0.46600001;fill:#00ff00;fill-opacity:1;stroke:#000000;stroke-width:0;stroke-linecap:round;stroke-linejoin:round;stroke-miterlimit:4;stroke-dasharray:none;stroke-opacity:1"
       id="rect4140"
       width="35.355343"
       height="4.0406189"
       x="-772.21014"
       y="640.35938"
       ry="2.0203094"
       inkscape:transform-center-x="-0.36929533" />
    <rect
       inkscape:transform-center-y="0.71428571"
       transform="matrix(0.80330115,0.59557305,-0.59557305,0.80330115,0,0)"
       style="opacity:0.46600001;fill:#00ff00;fill-opacity:1;stroke:#000000;stroke-width:0;stroke-linecap:round;stroke-linejoin:round;stroke-miterlimit:4;stroke-dasharray:none;stroke-opacity:1"
       id="rect4142"
       width="35.355343"
       height="4.0406189"
       x="-284.91037"
       y="908.93848"
       ry="2.0203094" />
    <rect
       inkscape:transform-center-y="0.71428571"
       transform="matrix(0.80330115,0.59557305,-0.59557305,0.80330115,0,0)"
       style="opacity:0.46600001;fill:#00ff00;fill-opacity:1;stroke:#000000;stroke-width:0;stroke-linecap:round;stroke-linejoin:round;stroke-miterlimit:4;stroke-dasharray:none;stroke-opacity:1"
       id="rect4144"
       width="35.355343"
       height="4.0406189"
       x="-226.89783"
       y="906.8302"
       ry="2.0203094" />
    <rect
       inkscape:transform-center-y="0.71428571"
       transform="matrix(0.80330115,0.59557305,-0.59557305,0.80330115,0,0)"
       style="opacity:0.46600001;fill:#00ff00;fill-opacity:1;stroke:#000000;stroke-width:0;stroke-linecap:round;stroke-linejoin:round;stroke-miterlimit:4;stroke-dasharray:none;stroke-opacity:1"
       id="rect4146"
       width="35.355343"
       height="4.0406189"
       x="-196.13123"
       y="871.57098"
       ry="2.0203094" />
    <rect
       inkscape:transform-center-y="0.71428571"
       transform="matrix(0.80330115,0.59557305,-0.59557305,0.80330115,0,0)"
       style="opacity:0.46600001;fill:#00ff00;fill-opacity:1;stroke:#000000;stroke-width:0;stroke-linecap:round;stroke-linejoin:round;stroke-miterlimit:4;stroke-dasharray:none;stroke-opacity:1"
       id="rect4148"
       width="35.355343"
       height="4.0406189"
       x="-260.83197"
       y="843.07043"
       ry="2.0203094" />
    <rect
       inkscape:transform-center-y="0.71428571"
       transform="matrix(0.80330115,0.59557305,-0.59557305,0.80330115,0,0)"
       style="opacity:0.46600001;fill:#00ff00;fill-opacity:1;stroke:#000000;stroke-width:0;stroke-linecap:round;stroke-linejoin:round;stroke-miterlimit:4;stroke-dasharray:none;stroke-opacity:1"
       id="rect4150"
       width="35.355343"
       height="4.0406189"
       x="-349.77921"
       y="885.00842"
       ry="2.0203094" />
    <rect
       inkscape:transform-center-y="0.71428571"
       transform="matrix(0.80330115,0.59557305,-0.59557305,0.80330115,0,0)"
       style="opacity:0.46600001;fill:#00ff00;fill-opacity:1;stroke:#000000;stroke-width:0;stroke-linecap:round;stroke-linejoin:round;stroke-miterlimit:4;stroke-dasharray:none;stroke-opacity:1"
       id="rect4152"
       width="35.355343"
       height="4.0406189"
       x="-379.35788"
       y="963.84631"
       ry="2.0203094" />
    <rect
       inkscape:transform-center-y="0.6230086"
       transform="matrix(0.99197045,0.12646987,-0.12646987,0.99197045,0,0)"
       style="opacity:0.46600001;fill:#00ff00;fill-opacity:1;stroke:#000000;stroke-width:0;stroke-linecap:round;stroke-linejoin:round;stroke-miterlimit:4;stroke-dasharray:none;stroke-opacity:1"
       id="rect4154"
       width="35.355343"
       height="4.0406189"
       x="-820.61798"
       y="735.11554"
       ry="2.0203094"
       inkscape:transform-center-x="-0.34942601" />
    <rect
       inkscape:transform-center-y="0.71428571"
       transform="matrix(0.80330115,0.59557305,-0.59557305,0.80330115,0,0)"
       style="opacity:0.46600001;fill:#00ff00;fill-opacity:1;stroke:#000000;stroke-width:0;stroke-linecap:round;stroke-linejoin:round;stroke-miterlimit:4;stroke-dasharray:none;stroke-opacity:1"
       id="rect4156"
       width="35.355343"
       height="4.0406189"
       x="-347.66913"
       y="1046.1654"
       ry="2.0203094" />
    <rect
       inkscape:transform-center-y="0.71431861"
       transform="matrix(0.80330115,0.59557305,-0.59557305,0.80330115,0,0)"
       style="opacity:0.46600001;fill:#00ff00;fill-opacity:1;stroke:#000000;stroke-width:0;stroke-linecap:round;stroke-linejoin:round;stroke-miterlimit:4;stroke-dasharray:none;stroke-opacity:1"
       id="rect4158"
       width="35.355343"
       height="4.0406189"
       x="-345.87827"
       y="1058.1755"
       ry="2.0203094" />
    <rect
       inkscape:transform-center-y="0.58403582"
       transform="matrix(0.99970158,0.02442858,-0.02442858,0.99970158,0,0)"
       style="opacity:0.46600001;fill:#00ff00;fill-opacity:1;stroke:#000000;stroke-width:0;stroke-linecap:round;stroke-linejoin:round;stroke-miterlimit:4;stroke-dasharray:none;stroke-opacity:1"
       id="rect4160"
       width="35.355343"
       height="4.0406189"
       x="-844.01819"
       y="670.13971"
       ry="2.0203094"
       inkscape:transform-center-x="-0.41126887" />
    <rect
       inkscape:transform-center-y="0.71430195"
       transform="matrix(0.80330115,0.59557305,-0.59557305,0.80330115,0,0)"
       style="opacity:0.46600001;fill:#00ff00;fill-opacity:1;stroke:#000000;stroke-width:0;stroke-linecap:round;stroke-linejoin:round;stroke-miterlimit:4;stroke-dasharray:none;stroke-opacity:1"
       id="rect4162"
       width="35.355343"
       height="4.0406189"
       x="-243.76489"
       y="934.45178"
       ry="2.0203094" />
    <rect
       inkscape:transform-center-y="0.58165251"
       transform="matrix(0.99982491,0.01871223,-0.01871223,0.99982491,0,0)"
       style="opacity:0.46600001;fill:#00ff00;fill-opacity:1;stroke:#000000;stroke-width:0;stroke-linecap:round;stroke-linejoin:round;stroke-miterlimit:4;stroke-dasharray:none;stroke-opacity:1"
       id="rect4164"
       width="35.355343"
       height="4.0406189"
       x="-802.13251"
       y="626.68225"
       ry="2.0203094"
       inkscape:transform-center-x="-0.41461291" />
    <rect
       inkscape:transform-center-y="0.71426615"
       transform="matrix(0.80330115,0.59557305,-0.59557305,0.80330115,0,0)"
       style="opacity:0.46600001;fill:#00ff00;fill-opacity:1;stroke:#000000;stroke-width:0;stroke-linecap:round;stroke-linejoin:round;stroke-miterlimit:4;stroke-dasharray:none;stroke-opacity:1"
       id="rect4166"
       width="35.355343"
       height="4.0406189"
       x="-288.06573"
       y="937.06427"
       ry="2.0203094"
       inkscape:transform-center-x="-1.13303e-005" />
    <rect
       inkscape:transform-center-y="0.7142795"
       transform="matrix(0.80330115,0.59557305,-0.59557305,0.80330115,0,0)"
       style="opacity:0.46600001;fill:#00ff00;fill-opacity:1;stroke:#000000;stroke-width:0;stroke-linecap:round;stroke-linejoin:round;stroke-miterlimit:4;stroke-dasharray:none;stroke-opacity:1"
       id="rect4168"
       width="35.355343"
       height="4.0406189"
       x="-377.29089"
       y="925.85712"
       ry="2.0203094"
       inkscape:transform-center-x="-1.3777108e-005" />
    <rect
       inkscape:transform-center-y="-0.011979928"
       transform="matrix(0.58196994,-0.8132103,0.8132103,0.58196994,0,0)"
       style="opacity:0.46600001;fill:#00ff00;fill-opacity:1;stroke:#000000;stroke-width:0;stroke-linecap:round;stroke-linejoin:round;stroke-miterlimit:4;stroke-dasharray:none;stroke-opacity:1"
       id="rect4170"
       width="35.355343"
       height="4.0406189"
       x="-992.7218"
       y="-342.53174"
       ry="2.0203094"
       inkscape:transform-center-x="-0.71419476" />
    <rect
       inkscape:transform-center-y="0.71430019"
       transform="matrix(0.80330115,0.59557305,-0.59557305,0.80330115,0,0)"
       style="opacity:0.46600001;fill:#00ff00;fill-opacity:1;stroke:#000000;stroke-width:0;stroke-linecap:round;stroke-linejoin:round;stroke-miterlimit:4;stroke-dasharray:none;stroke-opacity:1"
       id="rect4172"
       width="35.355343"
       height="4.0406189"
       x="-369.23633"
       y="1019.4745"
       ry="2.0203094" />
    <rect
       inkscape:transform-center-y="-0.25659985"
       transform="matrix(0.26721143,-0.96363793,0.96363793,0.26721143,0,0)"
       style="opacity:0.46600001;fill:#00ff00;fill-opacity:1;stroke:#000000;stroke-width:0;stroke-linecap:round;stroke-linejoin:round;stroke-miterlimit:4;stroke-dasharray:none;stroke-opacity:1"
       id="rect4174"
       width="35.355343"
       height="4.0406189"
       x="-805.04523"
       y="-715.54474"
       ry="2.0203094"
       inkscape:transform-center-x="-0.66657966" />
    <rect
       inkscape:transform-center-y="0.71428571"
       transform="matrix(0.80330115,0.59557305,-0.59557305,0.80330115,0,0)"
       style="opacity:0.46600001;fill:#00ff00;fill-opacity:1;stroke:#000000;stroke-width:0;stroke-linecap:round;stroke-linejoin:round;stroke-miterlimit:4;stroke-dasharray:none;stroke-opacity:1"
       id="rect4176"
       width="35.355343"
       height="4.0406189"
       x="-411.22229"
       y="1016.814"
       ry="2.0203094" />
    <rect
       inkscape:transform-center-y="0.7143095"
       transform="matrix(0.80330115,0.59557305,-0.59557305,0.80330115,0,0)"
       style="opacity:0.46600001;fill:#00ff00;fill-opacity:1;stroke:#000000;stroke-width:0;stroke-linecap:round;stroke-linejoin:round;stroke-miterlimit:4;stroke-dasharray:none;stroke-opacity:1"
       id="rect4178"
       width="35.355343"
       height="4.0406189"
       x="-411.04385"
       y="1036.2439"
       ry="2.0203094"
       inkscape:transform-center-x="1.4741812e-005" />
    <rect
       inkscape:transform-center-y="0.71428571"
       transform="matrix(0.80330115,0.59557305,-0.59557305,0.80330115,0,0)"
       style="opacity:0.46600001;fill:#00ff00;fill-opacity:1;stroke:#000000;stroke-width:0;stroke-linecap:round;stroke-linejoin:round;stroke-miterlimit:4;stroke-dasharray:none;stroke-opacity:1"
       id="rect4180"
       width="35.355343"
       height="4.0406189"
       x="-397.15375"
       y="1056.178"
       ry="2.0203094" />
    <rect
       inkscape:transform-center-y="0.71428571"
       transform="matrix(0.80330115,0.59557305,-0.59557305,0.80330115,0,0)"
       style="opacity:0.46600001;fill:#00ff00;fill-opacity:1;stroke:#000000;stroke-width:0;stroke-linecap:round;stroke-linejoin:round;stroke-miterlimit:4;stroke-dasharray:none;stroke-opacity:1"
       id="rect4182"
       width="35.355343"
       height="4.0406189"
       x="-382.48227"
       y="1063.9734"
       ry="2.0203094" />
    <rect
       inkscape:transform-center-y="-0.4503691"
       transform="matrix(-0.04421408,-0.99902208,0.99902208,-0.04421408,0,0)"
       style="opacity:0.46600001;fill:#00ff00;fill-opacity:1;stroke:#000000;stroke-width:0;stroke-linecap:round;stroke-linejoin:round;stroke-miterlimit:4;stroke-dasharray:none;stroke-opacity:1"
       id="rect4184"
       width="35.355343"
       height="4.0406189"
       x="-656.31244"
       y="-919.95386"
       ry="2.0203094"
       inkscape:transform-center-x="-0.55442056" />
    <rect
       inkscape:transform-center-y="-0.182989"
       transform="matrix(-0.78148065,0.62392948,-0.62392948,-0.78148065,0,0)"
       style="opacity:0.46600001;fill:#00ff00;fill-opacity:1;stroke:#000000;stroke-width:0;stroke-linecap:round;stroke-linejoin:round;stroke-miterlimit:4;stroke-dasharray:none;stroke-opacity:1"
       id="rect4186"
       width="35.355343"
       height="4.0406189"
       x="1019.5527"
       y="17.734781"
       ry="2.0203094"
       inkscape:transform-center-x="0.69041066" />
    <rect
       ry="2.0203094"
       y="901.95166"
       x="-153.15549"
       height="4.0406189"
       width="35.355343"
       id="rect4138"
       style="opacity:0.46600001;fill:#00ff00;fill-opacity:1;stroke:#000000;stroke-width:0;stroke-linecap:round;stroke-linejoin:round;stroke-miterlimit:4;stroke-dasharray:none;stroke-opacity:1"
       transform="matrix(0.80330115,0.59557305,-0.59557305,0.80330115,0,0)"
       inkscape:transform-center-y="0.71428571" />
  </g>
</svg>
